<svg width="65" height="59" viewBox="0 0 228 59" fill="none" xmlns="http://www.w3.org/2000/svg">
<g clip-path="url(#clip0)">
<path fill-rule="evenodd" clip-rule="evenodd" d="M30.6363 0.269073L23.1328 11.5034C25.5998 10.59 28.2741 10.0902 31.0676 10.0902C33.9376 10.0902 36.6819 10.6178 39.2047 11.5794L31.6505 0.269073C31.6049 0.200869 31.5456 0.142581 31.4762 0.0978158C31.1961 -0.0828217 30.8201 -0.00614724 30.6363 0.269073ZM48.5156 18.2422L61.8359 21.8178C62.1591 21.9045 62.3495 22.2323 62.2612 22.5499C62.2393 22.6286 62.2012 22.702 62.1493 22.7657L53.4693 33.4042C53.4964 32.962 53.5102 32.5163 53.5102 32.0675C53.5102 26.829 51.639 22.0186 48.5156 18.2422ZM0.133352 22.7677L8.65036 33.2065C8.63076 32.8299 8.62085 32.4508 8.62085 32.0695C8.62085 26.8552 10.4748 22.0649 13.5723 18.2965L0.446766 21.8198C0.36668 21.8413 0.291937 21.8787 0.227166 21.9298C-0.0342054 22.1357 -0.076207 22.5109 0.133352 22.7677ZM49.9512 43.9435L50.6137 57.6391C50.6296 57.968 50.3712 58.2472 50.0366 58.2628C49.9537 58.2667 49.8708 58.2538 49.7931 58.2249L36.688 53.3531C42.227 51.9526 46.9371 48.533 49.9512 43.9435ZM25.5303 53.3749L12.4862 58.224C12.1729 58.3405 11.8228 58.1853 11.7043 57.8774C11.6749 57.8011 11.6618 57.7197 11.6657 57.6382L12.3179 44.1552C15.3535 48.6624 20.0381 52.0103 25.5303 53.3749Z" fill="url(#paint0_linear)"/>
<path fill-rule="evenodd" clip-rule="evenodd" d="M31.1387 11.293C19.629 11.293 10.2461 20.4698 10.2461 31.854C10.2461 43.2383 19.629 52.4151 31.1387 52.4151C42.6484 52.4151 52.0313 43.2383 52.0313 31.854C52.0313 20.4698 42.6484 11.293 31.1387 11.293ZM25.9173 15.5743C27.5643 15.0668 29.318 14.793 31.1387 14.793C40.7733 14.793 48.5313 22.4602 48.5313 31.854C48.5313 35.9167 47.0803 39.6564 44.654 42.5926L44.0809 41.5925C43.8214 40.116 43.4946 39.243 43.1005 38.9737C42.7064 38.7043 42.3904 38.7591 42.1526 39.138C42.1238 39.5488 42.0943 39.8501 42.0641 40.042L42.2163 40.3019L42.5802 41.6382L38.9399 35.2447C38.9259 35.2025 38.9133 35.1629 38.9023 35.126C38.8889 35.1103 38.8771 35.092 38.867 35.0707C38.8607 35.057 38.8476 35.0272 38.8282 34.9828L38.8277 34.9818L38.8276 34.9816V34.9815C38.6476 34.5703 37.9272 32.9242 36.9188 31.1655C37.0388 31.1655 37.3341 31.0094 37.537 30.9022H37.5371V30.9021C37.6432 30.8461 37.724 30.8034 37.7411 30.8034C37.8161 30.8034 42.4028 30.6654 42.8072 30.5686C42.9407 30.5366 42.942 30.6825 42.9449 30.9929C42.9478 31.3097 42.9524 31.7977 43.1005 32.4428L43.2751 33.3631L43.6862 33.4917C43.7907 33.7331 43.8429 33.9017 43.8429 33.9976C43.6536 33.9976 43.4643 34.2141 43.2751 34.6471L44.2019 35.6394L44.5355 34.896L44.3181 33.0791C43.962 31.4507 43.8941 30.6547 43.8534 30.1766C43.8218 29.8064 43.8065 29.6267 43.6862 29.3988C43.4557 29.2688 41.7487 29.3323 40.6465 29.3732H40.6464H40.6463C40.2675 29.3873 39.9602 29.3988 39.8089 29.3988C39.8711 29.3238 39.9412 29.2145 40.026 29.0824C40.3719 28.5431 40.9616 27.6237 42.2547 27.1125C43.5069 27.9366 43.7121 28.4119 43.7938 28.6012H43.7939C43.813 28.6456 43.8254 28.6742 43.8429 28.688C43.935 28.7605 44.2183 28.9811 44.5355 28.8362C44.6471 28.9257 44.7137 29.062 44.7728 29.1829C44.8041 29.2469 44.8333 29.3066 44.8659 29.3528C44.7174 29.3528 44.6032 29.4375 44.6575 30.0523L45.6513 30.5686C45.6513 30.3559 45.6958 30.1362 45.7359 29.9378C45.7689 29.7746 45.7989 29.6259 45.7989 29.5074C45.8671 29.2658 45.6164 28.8157 45.016 28.2352L42.3833 25.8441H41.8621C41.7752 25.8234 41.649 25.9006 41.4098 26.047C41.041 26.2728 40.4034 26.663 39.2263 27.1125C39.0637 26.664 38.8965 26.3346 38.7488 26.0438C38.5918 25.7346 38.457 25.4689 38.3735 25.1501C38.2383 24.6342 37.6343 24.0513 37.0847 23.5208C36.6456 23.097 36.2412 22.7067 36.1383 22.4108C35.9064 21.7446 36.064 21.2991 36.2517 21.1807C36.647 20.7579 37.9065 22.3979 37.9065 22.5629C37.9065 22.6536 38.5048 23.2165 38.9399 23.3803C39.1396 23.4555 39.2904 23.4035 39.3955 23.3673C39.4779 23.3389 39.5321 23.3203 39.5597 23.3803C40.9491 23.3803 39.9145 21.7897 39.7104 21.5093C39.8254 21.2465 39.7214 21.0674 39.3985 20.9721C39.0651 20.1532 38.8423 19.6177 38.7302 19.3657C38.9415 18.9605 38.6554 18.6189 38.4818 18.4118C38.4019 18.3163 38.3458 18.2494 38.3735 18.218C38.402 18.1856 38.34 18.008 38.2696 17.8066L38.2375 17.7144C38.1953 17.5919 38.1595 17.3815 38.1304 17.0831C37.0987 17.2262 36.5418 17.2573 36.4594 17.1764C36.4594 17.0518 36.296 16.9887 35.9691 16.9871C35.8369 17.0839 35.6585 17.0839 35.4338 16.9871C35.0966 16.8419 34.654 16.8777 34.4649 17.1764C34.064 17.0221 33.5137 17.4067 33.3614 17.6617C32.8803 17.6617 32.5561 17.9661 32.3888 18.5748L31.804 18.9686C30.8044 17.9893 30.2333 17.2923 30.0908 16.8777C29.9483 16.4631 29.4747 16.2249 28.67 16.163L28.1303 15.0645C27.9544 15.0929 27.7793 15.1238 27.6052 15.1573L28.2585 16.4948V16.7364L30.0908 20.1043L30.0359 20.2581C29.8852 20.3784 29.741 20.4881 29.6035 20.587C29.466 20.1129 29.0633 19.7803 28.3954 19.5892L28.3504 19.3657L28.2585 18.9686V18.5748C28.3498 18.5464 28.3954 18.5019 28.3954 18.4415C28.3954 18.3811 28.3163 18.2625 28.1582 18.0858L27.9767 17.7144C28.0175 17.5966 28.0175 17.494 27.9767 17.4067C27.8156 16.9163 27.3182 16.5422 26.4846 16.2846C26.3837 16.066 26.1946 15.8292 25.9173 15.5743ZM24.8056 15.9583C18.3201 18.446 13.7461 24.641 13.7461 31.854C13.7461 37.2812 16.3355 42.132 20.3802 45.2609C19.8338 44.2976 19.598 43.7481 19.6729 43.6124C19.6729 43.1494 19.819 42.7507 20.1113 42.4164C20.2234 42.3219 20.3389 42.2102 20.4556 42.0759C20.5901 41.9211 20.9548 41.7306 21.3136 41.5431C21.5592 41.4148 21.802 41.2879 21.9663 41.175C22.6753 40.9596 23.0299 40.9102 23.0299 41.0268C23.0299 41.2356 22.86 41.5783 22.6411 42.0198L22.641 42.0199C22.5092 42.2859 22.3595 42.5879 22.2185 42.9179C21.9685 43.5032 22.3389 44.617 23.3295 46.2594C25.2744 46.1329 26.3261 45.9155 26.4846 45.6071C26.3987 45.3181 26.7659 44.9403 27.2199 44.6806C26.2669 44.1267 23.7214 41.7003 23.7214 41.2579C23.7214 41.1476 23.9744 40.7709 24.4804 40.1279C24.5388 39.338 24.4753 38.7872 24.2898 38.4755C22.5016 38.4755 21.0491 36.95 20.6943 36.0748C20.5437 35.7031 20.505 35.3479 20.4725 35.0495C20.4284 34.6451 20.3957 34.3453 20.1113 34.251C18.1559 35.0356 18.941 36.8775 19.5921 38.4051C19.915 39.1627 20.205 39.8431 20.1113 40.2787C20.0589 40.5223 20.021 40.7532 19.9978 40.9716C19.6097 41.6451 19.2715 42.0677 18.9829 42.2395C18.8728 42.2797 18.7787 42.3091 18.7006 42.3278C18.6509 42.3281 18.612 42.3359 18.5832 42.3492C18.4259 42.3662 18.3786 42.3095 18.4411 42.179C18.6069 41.8326 18.6069 41.5925 18.4411 40.6203C18.4411 40.2338 18.2551 39.9059 17.8832 39.6365C16.7847 38.5874 16.2525 37.6497 16.2867 36.8233C16.338 35.5837 17.9611 32.7797 19.511 32.7797H20.4662C21.0004 31.8647 22.5762 30.774 25.1934 29.5074L28.035 25.5274L25.5373 25.1501C24.308 26.7161 23.0646 27.8954 21.8072 28.688C20.7265 29.3692 19.7948 30.1536 19.0558 30.7759H19.0557C18.505 31.2397 18.0611 31.6134 17.7422 31.7872C17.2458 30.7262 17.6674 30.0028 18.4411 28.688C18.5965 28.4238 18.5733 28.0516 18.5494 27.6675C18.5217 27.2222 18.4929 26.761 18.7405 26.4337C18.7747 26.3886 18.8158 26.3316 18.863 26.2663L18.8631 26.2661C19.0848 25.9592 19.4395 25.468 19.8285 25.1501C20.2159 24.8336 20.3441 24.45 20.448 24.139C20.5176 23.9309 20.5762 23.7554 20.6943 23.6541C21.4676 22.9912 22.7024 22.824 23.3339 22.7384C23.5384 22.7107 23.6797 22.6916 23.7214 22.667C24.1168 22.3508 24.4903 21.9625 24.8045 21.6358C25.1224 21.3054 25.3796 21.038 25.5373 20.9721C25.4687 20.7456 25.7662 20.159 25.8546 20.159C25.9135 20.159 25.9135 19.6666 25.8546 18.682C25.4114 18.0564 25.4646 17.3567 26.014 16.5829V16.4261C25.3622 16.7254 25.0363 17.2786 25.0363 18.0858C25.0363 19.2966 23.3598 20.9721 22.7006 20.7989C22.7873 20.7008 22.9231 20.5771 23.0698 20.4434L23.0699 20.4433C23.3889 20.1527 23.7597 19.8149 23.7926 19.5892C23.8244 19.5235 23.8312 19.342 23.8407 19.088C23.8697 18.3087 23.924 16.8476 24.8056 15.9583ZM39.184 46.9851C40.2813 46.4225 41.3094 45.7484 42.2528 44.9784C42.1905 44.9487 42.1239 44.9179 42.053 44.8862C41.9257 44.5078 41.8621 44.2572 41.8621 44.1342C41.8621 43.9499 40.7596 42.2469 40.0199 41.7629C40.0199 41.6579 40.2436 41.2574 40.691 40.5614L41.6173 42.1156L41.4955 41.2966L37.5997 34.8268V34.8736C37.4821 34.6742 37.3234 34.3523 37.1333 33.9672C36.8167 33.3253 36.4132 32.5075 35.9691 31.7872C35.5419 32.0745 35.137 32.3504 34.7536 32.6116C32.4749 34.1641 30.959 35.1969 30.0876 35.0078C30.0876 35.5509 29.6434 38.1641 28.6646 39.2791C28.7051 39.3643 28.7342 39.4775 28.7679 39.6085C28.8419 39.8962 28.938 40.2696 29.2257 40.6203C29.4126 40.8481 29.8448 41.1874 30.5224 41.6382C31.4968 40.2187 31.668 39.3305 31.0358 38.9737C31.1927 38.9228 31.4229 38.9322 31.6857 38.9428C32.5167 38.9766 33.6728 39.0235 33.8601 37.2212C34.722 36.5933 35.5734 36.358 36.3206 36.1514C36.8601 36.0023 37.3453 35.8682 37.7411 35.6122L39.6011 38.7329C39.5916 38.736 39.5825 38.7404 39.5738 38.7461C39.2752 38.941 38.4085 39.73 37.4404 41.0268C36.6171 42.1297 38.2787 45.7218 39.184 46.9851ZM27.9026 44.4094C27.9924 44.3904 28.0785 44.3801 28.1582 44.3801C28.517 44.3801 28.8818 44.5107 29.156 44.6088C29.3977 44.6953 29.5689 44.7565 29.6035 44.6809C30.4025 44.5954 31.1433 44.1342 31.4537 43.8336C31.7641 43.533 30.0908 42.6821 29.5488 42.5388C28.6983 42.0829 27.0037 40.3676 26.7109 40.0406C26.5588 40.0406 26.224 40.4115 25.7066 41.1534C25.6314 41.372 25.6314 41.6114 25.7066 41.8716C25.7536 42.0343 26.0399 42.305 26.4021 42.6472C26.9087 43.1261 27.5638 43.7453 27.9195 44.4054L27.9026 44.4094ZM30.0513 48.4346L25.668 47.4894C27.0797 46.9689 27.9927 46.7954 28.4071 46.9689C28.8214 47.1424 29.3695 47.631 30.0513 48.4346ZM35.4387 46.9052C35.4387 46.2248 35.1782 46.0051 34.7553 45.8022C34.643 45.7484 34.5112 45.6667 34.3699 45.5792C33.836 45.2486 33.1676 44.8346 32.9134 45.5239C32.5919 46.3956 33.3556 47.7195 33.6652 47.7979C35.1634 47.8468 35.3276 47.3286 35.4387 46.9052ZM39.5585 35.128C39.436 35.1577 39.3258 35.1844 39.2305 35.1976L40.8646 37.9876C41.0668 37.757 42.1908 37.5488 43.5167 37.3032C44.0886 37.1973 44.698 37.0844 45.2873 36.9597C45.159 36.2377 41.5407 35.1006 40.6277 35.0084C40.2214 34.9674 39.8539 35.0565 39.5585 35.128ZM27.2847 15.2212L26.85 15.4453L26.7654 15.3393C26.9375 15.2974 27.1106 15.2581 27.2847 15.2212Z" fill="url(#paint1_linear)"/>
</g>
<defs>
<linearGradient id="paint0_linear" x1="9.78101" y1="58.4043" x2="54.2812" y2="2.90534" gradientUnits="userSpaceOnUse">
<stop stop-color="#9C2A16"/>
<stop offset="1" stop-color="#EE4F20"/>
</linearGradient>
<linearGradient id="paint1_linear" x1="31.1387" y1="11.293" x2="31.1387" y2="52.4151" gradientUnits="userSpaceOnUse">
<stop stop-color="#DCBF78"/>
<stop offset="1" stop-color="#A0833D"/>
</linearGradient>
<clipPath id="clip0">
<rect width="228" height="59" fill="white"/>
</clipPath>
</defs>
</svg>
